<mxfile host="app.diagrams.net" modified="2024-06-18T18:22:51.804Z" agent="Mozilla/5.0 (Windows NT 10.0; Win64; x64) AppleWebKit/537.36 (KHTML, like Gecko) Chrome/123.0.0.0 Safari/537.36 OPR/109.0.0.0" version="24.4.9" etag="fA6agFoXQO8qgAabg0jp" type="github">
  <diagram name="PÃ¡gina-1" id="xbZieVm0xrTmN9SILhUu">
    <mxGraphModel>
      <root>
        <mxCell id="0" />
        <mxCell id="1" parent="0" />
      </root>
    </mxGraphModel>
  </diagram>
</mxfile>
